<?xml version="1.0" standalone="no"?>
<!DOCTYPE svg PUBLIC "-//W3C//DTD SVG 20010904//EN"
 "http://www.w3.org/TR/2001/REC-SVG-20010904/DTD/svg10.dtd">
<svg version="1.0" xmlns="http://www.w3.org/2000/svg"
 width="512.000000pt" height="512.000000pt" viewBox="0 0 512.000000 512.000000"
 preserveAspectRatio="xMidYMid meet">
<metadata>
Created by potrace 1.14, written by Peter Selinger 2001-2017
</metadata>
<g transform="translate(0.000000,512.000000) scale(0.100000,-0.100000)"
fill="#000000" stroke="none">
<path d="M2487 5105 c-187 -47 -345 -205 -386 -385 -21 -91 -11 -187 69 -677
44 -268 82 -499 86 -513 3 -17 2 -22 -4 -15 -6 6 -128 213 -272 460 -293 504
-318 538 -448 602 -117 58 -231 72 -357 42 -180 -42 -346 -215 -386 -399 -16
-77 -6 -222 20 -291 48 -127 75 -155 483 -509 213 -184 385 -336 383 -338 -2
-2 -227 77 -502 176 -274 99 -522 185 -551 191 -258 55 -521 -109 -596 -371
-24 -83 -22 -227 3 -309 53 -171 210 -316 377 -348 68 -13 398 -21 927 -21
246 -1 447 -4 447 -8 0 -4 -253 -104 -562 -221 -310 -118 -590 -227 -623 -244
-75 -37 -170 -133 -212 -213 -83 -158 -82 -333 4 -496 131 -251 431 -347 687
-222 31 15 225 170 471 376 425 354 442 368 433 352 -121 -211 -539 -975 -556
-1019 -30 -73 -40 -203 -23 -288 63 -299 389 -486 675 -387 160 55 280 176
326 329 11 36 67 324 125 640 58 316 106 576 108 577 2 2 27 -128 56 -289 168
-921 167 -916 207 -994 90 -178 296 -295 490 -279 243 20 431 186 479 425 15
72 16 97 6 165 -14 103 -28 132 -293 606 -118 212 -221 396 -228 409 -16 31
-32 44 395 -314 191 -160 354 -289 387 -306 204 -105 440 -69 598 90 166 167
207 399 107 611 -38 81 -149 196 -224 231 -28 13 -295 116 -592 229 -297 113
-541 208 -541 213 0 4 215 7 478 7 699 1 765 6 882 65 108 55 213 182 250 303
26 84 27 223 2 313 -49 175 -191 314 -368 359 -90 23 -157 25 -234 6 -30 -7
-239 -79 -464 -160 -225 -81 -412 -145 -417 -144 -4 2 146 136 334 298 442
383 444 385 489 454 129 200 100 483 -67 647 -114 111 -201 150 -352 157 -84
3 -114 1 -170 -17 -86 -25 -174 -82 -233 -148 -26 -30 -174 -274 -355 -586
-170 -294 -311 -532 -313 -527 -1 4 38 254 87 556 112 686 105 628 92 715 -22
144 -114 286 -237 365 -110 70 -277 99 -397 69z m223 -197 c52 -15 135 -74
163 -117 46 -69 59 -112 59 -186 0 -54 -211 -1392 -237 -1501 -4 -19 -12 -21
-90 -22 -52 0 -85 4 -85 10 0 6 -54 340 -121 742 -99 600 -120 743 -115 796
18 210 215 339 426 278z m1394 -436 c62 -21 153 -104 184 -166 63 -126 39
-277 -62 -379 -82 -83 -1138 -992 -1167 -1005 -28 -12 -32 -10 -74 25 -25 20
-45 41 -45 46 0 13 779 1349 809 1387 34 42 119 96 175 109 51 12 116 6 180
-17z m-2691 -48 c100 -33 117 -58 498 -714 193 -333 364 -626 379 -652 l29
-46 -70 -52 -70 -52 -22 19 c-12 11 -258 225 -547 475 -289 250 -541 473 -561
495 -106 118 -104 309 6 430 97 109 220 142 358 97z m-85 -1425 c675 -242 733
-265 729 -284 -3 -11 -12 -42 -19 -70 l-14 -50 -495 0 c-272 -1 -629 2 -794 5
l-300 5 -55 28 c-72 37 -111 76 -146 145 -26 51 -29 67 -29 152 0 82 4 103 26
150 59 123 175 195 304 186 46 -4 226 -64 793 -267z m3364 237 c140 -42 229
-170 230 -332 2 -123 -68 -236 -180 -291 l-57 -28 -290 -5 c-159 -3 -495 -7
-745 -8 l-455 -2 -18 67 c-10 38 -20 77 -23 88 -4 16 3 23 38 37 94 38 1325
476 1348 481 50 9 108 7 152 -7z m-1919 -384 c164 -76 259 -257 229 -432 -48
-272 -319 -418 -565 -303 -283 133 -307 541 -42 711 111 71 258 80 378 24z
m-688 -648 c22 -42 41 -80 43 -84 3 -7 -1007 -856 -1108 -932 -42 -31 -128
-58 -186 -58 -111 0 -229 81 -286 198 -63 127 -37 275 65 375 25 23 64 52 88
62 38 17 1326 511 1339 514 3 0 23 -33 45 -75z m1753 -178 c368 -140 683 -261
698 -269 45 -24 103 -86 132 -141 23 -44 27 -63 27 -141 0 -77 -4 -98 -26
-145 -94 -197 -308 -258 -479 -136 -36 26 -1049 866 -1098 911 -10 9 -6 23 23
71 20 32 38 69 41 82 4 12 8 22 9 22 2 0 305 -114 673 -254z m-552 -682 c192
-345 360 -652 373 -683 36 -83 35 -176 -3 -259 -115 -249 -474 -260 -587 -18
-28 61 -44 140 -248 1261 l-47 260 70 31 c39 18 76 32 82 33 6 1 168 -281 360
-625z m-908 587 c20 -10 52 -22 70 -26 18 -4 36 -13 38 -19 5 -12 -35 -234
-201 -1136 -30 -162 -60 -312 -65 -332 -25 -88 -123 -185 -213 -209 -65 -18
-184 -6 -243 24 -143 73 -217 242 -167 387 20 60 723 1330 736 1330 4 0 24 -8
45 -19z"/>
</g>
</svg>
